<svg width="899" height="583" viewBox="0 0 899 583" fill="none" xmlns="http://www.w3.org/2000/svg">
<path opacity="0.0144928" d="M-34.4049 261.04C-35.0669 271.604 -28.6584 281.331 -18.6907 284.891L205.328 364.911C211.223 367.017 217.71 366.71 223.38 364.057L537.065 217.321C541.524 215.235 545.225 211.816 547.656 207.535L696.515 -54.654C700.922 -62.4159 700.605 -71.9939 695.694 -79.4473L582.277 -251.592C577.367 -259.046 568.691 -263.117 559.82 -262.13L260.168 -228.817C255.275 -228.273 250.672 -226.223 246.996 -222.949L-11.619 7.37406C-16.2934 11.5371 -19.1355 17.3769 -19.5271 23.624L-34.4049 261.04Z" stroke="#338600" stroke-width="2.5"/>
<path opacity="0.0289855" d="M-49.0416 225.531C-50.2355 236.019 -44.363 246.038 -34.6278 250.12L183.138 341.429C188.919 343.853 195.424 343.893 201.235 341.541L519.234 212.789C523.811 210.936 527.697 207.703 530.35 203.54L690.962 -48.4872C695.752 -56.0045 695.931 -65.5715 691.423 -73.2617L587.808 -250.02C583.3 -257.71 574.865 -262.228 565.965 -261.72L267.598 -244.693C262.669 -244.412 257.949 -242.601 254.096 -239.513L-13.592 -24.9347C-18.4831 -21.0139 -21.626 -15.3181 -22.335 -9.08969L-49.0416 225.531Z" stroke="#338600" stroke-width="2.5"/>
<path opacity="0.0434783" d="M-62.495 189.823C-64.2144 200.209 -58.8911 210.489 -49.4161 215.078L161.536 317.243C167.186 319.98 173.69 320.368 179.626 318.323L500.924 207.602C505.607 205.988 509.667 202.951 512.538 198.916L684.253 -42.4415C689.413 -49.6954 690.084 -59.227 685.99 -67.1323L592.347 -247.952C588.253 -255.857 580.082 -260.81 571.179 -260.78L274.974 -259.811C270.021 -259.794 265.198 -258.23 261.178 -255.337L-14.6509 -56.8171C-19.7464 -53.1497 -23.1826 -47.6138 -24.2081 -41.42L-62.495 189.823Z" stroke="#338600" stroke-width="2.5"/>
<path opacity="0.057971" d="M-74.7644 153.984C-77.0023 164.242 -72.2392 174.752 -63.051 179.832L140.553 292.393C146.056 295.435 152.541 296.171 158.585 294.44L482.173 201.739C486.949 200.37 491.176 197.539 494.259 193.642L676.403 -36.579C681.92 -43.5512 683.08 -53.0209 679.411 -61.1187L595.879 -245.446C592.209 -253.544 584.323 -258.914 575.444 -259.362L282.256 -274.177C277.295 -274.427 272.379 -273.116 268.201 -270.427L-14.8272 -88.2239C-20.114 -84.8204 -23.8355 -79.4596 -25.1757 -73.3165L-74.7644 153.984Z" stroke="#338600" stroke-width="2.5"/>
<path opacity="0.0724638" d="M-85.8541 118.08C-88.6011 128.182 -84.4084 138.893 -75.5326 144.446L120.219 266.914C125.557 270.253 132.004 271.337 138.14 269.925L463.022 195.177C467.878 194.059 472.261 191.442 475.548 187.696L667.434 -30.9652C673.29 -37.6384 674.936 -47.0208 671.699 -55.2883L598.387 -242.563C595.151 -250.831 587.573 -256.603 578.743 -257.527L289.406 -287.803C284.449 -288.322 279.454 -287.268 275.13 -284.791L-14.1549 -119.112C-19.6192 -115.983 -23.617 -110.811 -25.2693 -104.735L-85.8541 118.08Z" stroke="#338600" stroke-width="2.5"/>
<path opacity="0.0869565" d="M-95.7748 82.1735C-99.0207 92.0961 -95.4062 102.975 -86.8677 108.983L100.558 240.844C105.716 244.473 112.106 245.901 118.318 244.814L443.508 187.898C448.433 187.036 452.96 184.642 456.445 181.057L657.368 -25.6589C663.548 -32.0165 665.672 -41.2872 662.876 -49.701L599.862 -239.363C597.067 -247.777 589.817 -253.934 581.062 -255.329L296.382 -300.706C291.445 -301.493 286.385 -300.702 281.924 -298.445L-12.6708 -149.442C-18.2985 -146.595 -22.5632 -141.627 -24.5241 -135.633L-95.7748 82.1735Z" stroke="#338600" stroke-width="2.5"/>
<path opacity="0.101449" d="M-104.536 46.3308C-108.269 56.0482 -105.239 67.0649 -97.0611 73.5062L81.5976 214.228C86.5598 218.137 92.8743 219.908 99.1452 219.149L423.675 179.891C428.655 179.288 433.316 177.125 436.99 173.711L646.232 -20.7176C652.718 -26.7442 655.313 -35.8778 652.966 -44.4142L600.297 -235.904C597.949 -244.44 591.048 -250.963 582.392 -252.825L303.15 -312.896C298.247 -313.951 293.135 -313.426 288.548 -311.397L-10.4103 -179.167C-16.1871 -176.612 -20.7077 -171.861 -22.973 -165.964L-104.536 46.3308Z" stroke="#338600" stroke-width="2.5"/>
<path opacity="0.115942" d="M-112.153 10.6183C-116.36 20.1064 -113.92 31.2279 -106.125 38.0818L63.3575 187.111C68.1086 191.289 74.3303 193.398 80.6424 192.971L403.564 171.143C408.585 170.804 413.368 168.878 417.224 165.645L634.056 -16.195C640.83 -21.8757 643.888 -30.8486 641.993 -39.4836L599.687 -232.241C597.792 -240.877 591.258 -247.745 582.727 -250.067L309.674 -324.388C304.818 -325.71 299.668 -325.454 294.967 -323.66L-7.41559 -208.25C-13.3263 -205.994 -18.0929 -201.473 -20.6578 -195.69L-112.153 10.6183Z" stroke="#338600" stroke-width="2.5"/>
<path opacity="0.130435" d="M-118.641 -24.9052C-123.309 -15.6696 -121.46 -4.47425 -114.07 2.76964L45.8625 159.533C50.3878 163.969 56.498 166.412 62.8339 166.319L383.22 161.644C388.268 161.57 393.162 159.89 397.19 156.846L620.876 -12.1466C627.919 -17.468 631.43 -26.2568 629.992 -34.9665L598.037 -228.436C596.598 -237.146 590.447 -244.34 582.067 -247.114L315.92 -335.201C311.127 -336.787 305.953 -336.805 301.149 -335.252L-3.72445 -236.655C-9.75366 -234.705 -14.7535 -230.426 -17.6122 -224.771L-118.641 -24.9052Z" stroke="#338600" stroke-width="2.5"/>
<path opacity="0.144928" d="M-124.024 -60.1786C-129.138 -51.218 -127.882 -39.9806 -120.916 -32.3704L29.1261 131.539C33.4115 136.22 39.3923 138.992 45.7342 139.235L362.683 151.387C367.745 151.581 372.737 150.151 376.928 147.306L606.722 -8.62362C614.016 -13.5729 617.969 -22.1542 616.99 -30.9141L595.344 -224.546C594.364 -233.306 588.614 -240.803 580.407 -244.02L321.852 -345.356C317.136 -347.204 311.952 -347.496 307.058 -346.189L0.616728 -264.348C-5.51515 -262.71 -10.7361 -258.686 -13.882 -253.174L-124.024 -60.1786Z" stroke="#338600" stroke-width="2.5"/>
<path opacity="0.173913" d="M-131.584 -129.749C-137.538 -121.402 -137.464 -110.176 -131.4 -101.909L-2.01777 74.4723C1.74843 79.6064 7.4186 83.0132 13.7199 83.928L321.199 128.569C326.246 129.301 331.396 128.39 335.886 125.968L575.654 -3.35646C583.388 -7.52811 588.187 -15.6296 588.129 -24.4169L586.857 -216.746C586.799 -225.533 581.894 -233.569 574.105 -237.638L332.648 -363.783C328.127 -366.144 322.965 -366.989 317.928 -366.189L11.0662 -317.487C4.77743 -316.489 -0.847123 -313.008 -4.5451 -307.824L-131.584 -129.749Z" stroke="#338600" stroke-width="2.5"/>
<path opacity="0.188406" d="M-133.814 -163.935C-140.162 -155.925 -140.674 -144.751 -135.084 -136.194L-16.3995 45.489C-12.9114 50.8287 -7.42176 54.541 -1.16721 55.7902L300.34 116.007C305.359 117.009 310.569 116.363 315.191 114.164L558.825 -1.70305C566.749 -5.47118 571.95 -13.3004 572.351 -22.0648L581.09 -212.947C581.491 -221.711 577.027 -229.983 569.481 -234.459L337.453 -372.103C333.051 -374.714 327.922 -375.834 322.832 -375.294L17.0842 -342.88C10.7417 -342.208 4.93587 -339.013 0.974396 -334.014L-133.814 -163.935Z" stroke="#338600" stroke-width="2.5"/>
<path opacity="0.202899" d="M-135.055 -197.647C-141.777 -189.992 -142.868 -178.902 -137.768 -170.084L-29.9756 16.2715C-26.7767 21.8016 -21.4848 25.8098 -15.2949 27.3909L279.462 102.679C284.439 103.95 289.694 103.574 294.439 101.606L541.195 -0.75416C549.286 -4.11043 554.872 -11.6478 555.73 -20.3651L574.325 -209.284C575.183 -218.002 571.173 -226.483 563.891 -231.353L341.827 -379.857C337.556 -382.712 332.476 -384.107 327.346 -383.831L23.5676 -367.454C17.1881 -367.11 11.2163 -364.21 7.00067 -359.409L-135.055 -197.647Z" stroke="#338600" stroke-width="2.5"/>
<path opacity="0.217391" d="M-135.345 -230.837C-142.421 -223.555 -144.085 -212.58 -139.485 -203.528L-42.7451 -13.1402C-39.8461 -7.43497 -34.7672 -3.14091 -28.6592 -1.23107L258.603 88.5895C263.524 90.128 268.811 90.0233 273.667 88.2916L522.806 -0.5521C531.043 -3.48953 536.999 -10.7163 538.31 -19.3625L566.578 -205.815C567.889 -214.461 564.343 -223.128 557.347 -228.375L345.74 -387.077C341.615 -390.17 336.596 -391.836 331.441 -391.826L30.4643 -391.192C24.0647 -391.178 17.9413 -388.582 13.4814 -383.993L-135.345 -230.837Z" stroke="#338600" stroke-width="2.5"/>
<path opacity="0.231884" d="M-134.721 -263.463C-142.13 -256.57 -144.358 -245.738 -140.27 -236.48L-54.7053 -42.7023C-52.1158 -36.8382 -47.2659 -32.2699 -41.2576 -30.0355L237.805 73.7406C242.656 75.5443 247.963 75.7149 252.919 74.2257L503.708 -1.13544C512.069 -3.64802 518.377 -10.5455 520.136 -19.0968L557.873 -202.592C559.631 -211.143 556.557 -219.97 549.866 -225.578L349.169 -393.791C345.203 -397.115 340.259 -399.053 335.091 -399.31L37.7237 -414.081C31.3211 -414.399 25.0621 -412.115 20.3686 -407.748L-134.721 -263.463Z" stroke="#338600" stroke-width="2.5"/>
<path opacity="0.246377" d="M-133.224 -295.473C-140.944 -288.984 -143.725 -278.326 -140.158 -268.893L-65.8541 -72.3673C-63.583 -66.3607 -58.9764 -61.5298 -53.0846 -58.9759L217.113 58.1471C221.879 60.2129 227.191 60.6586 232.234 59.4174L483.955 -2.53044C492.418 -4.61325 499.06 -11.1638 501.26 -19.5967L548.234 -199.659C550.434 -208.092 547.838 -217.054 541.471 -223.005L352.092 -400.026C348.297 -403.573 343.444 -405.778 338.277 -406.304L45.2984 -436.102C38.9098 -436.752 32.5303 -434.787 27.6145 -430.655L-133.224 -295.473Z" stroke="#338600" stroke-width="2.5"/>
<path opacity="0.26087" d="M-130.899 -326.828C-138.908 -320.757 -142.229 -310.302 -139.191 -300.722L-76.1979 -102.092C-74.2533 -95.9599 -69.9043 -90.8787 -64.1459 -88.0111L196.563 41.8152C201.23 44.1393 206.533 44.8636 211.652 43.8752L463.594 -4.76913C472.136 -6.4185 479.093 -12.6069 481.727 -20.8989L537.683 -197.069C540.317 -205.361 538.206 -214.429 532.181 -220.706L354.485 -405.814C350.874 -409.576 346.126 -412.045 340.973 -412.84L53.1329 -457.247C46.7753 -458.228 40.2916 -456.589 35.1651 -452.703L-130.899 -326.828Z" stroke="#338600" stroke-width="2.5"/>
<path opacity="0.275362" d="M-127.788 -357.488C-136.063 -351.848 -139.911 -341.622 -137.407 -331.925L-85.738 -131.832C-84.1267 -125.592 -80.0485 -120.276 -74.4403 -117.101L176.197 24.7611C180.752 27.3391 186.031 28.3405 191.214 27.6092L442.682 -7.8772C451.281 -9.09077 458.533 -14.9018 461.591 -23.0301L526.252 -194.865C529.311 -202.993 527.689 -212.143 522.023 -218.725L356.332 -411.187C352.917 -415.154 348.288 -417.882 343.163 -418.946L61.1801 -477.509C54.8705 -478.819 48.2988 -477.51 42.9738 -473.88L-127.788 -357.488Z" stroke="#338600" stroke-width="2.5"/>
<path opacity="0.289855" d="M-123.938 -387.416C-132.455 -382.217 -136.815 -372.248 -134.849 -362.465L-94.4814 -161.544C-93.2098 -155.215 -89.4163 -149.676 -83.9747 -146.203L156.055 6.99909C160.484 9.82613 165.726 11.1048 170.959 10.6342L421.274 -11.8761C429.908 -12.6525 437.433 -18.0715 440.907 -26.0142L513.974 -193.09C517.448 -201.033 516.317 -210.237 511.026 -217.104L357.616 -416.176C354.408 -420.338 349.911 -423.319 344.828 -424.652L69.3873 -496.882C63.1429 -498.519 56.5008 -497.544 50.9904 -494.181L-123.938 -387.416Z" stroke="#338600" stroke-width="2.5"/>
<path opacity="0.304348" d="M-119.401 -416.582C-128.137 -411.835 -132.992 -402.149 -131.567 -392.31L-102.442 -191.189C-101.515 -184.789 -98.0183 -179.043 -92.7589 -175.279L136.169 -11.4557C140.459 -8.38551 145.65 -6.83127 150.921 -7.03812L399.421 -16.7883C408.067 -17.1276 415.845 -22.1427 419.722 -29.8782L500.876 -191.79C504.753 -199.525 504.117 -208.757 499.215 -215.888L358.317 -420.815C355.328 -425.163 350.976 -428.391 345.949 -429.991L77.701 -515.366C71.5383 -517.327 64.8422 -516.691 59.1596 -513.603L-119.401 -416.582Z" stroke="#338600" stroke-width="2.5"/>
<path opacity="0.318841" d="M-114.226 -444.951C-123.156 -440.665 -128.488 -431.287 -127.605 -421.421L-109.631 -220.724C-109.054 -214.271 -105.864 -208.334 -100.802 -204.289L116.577 -30.5816C120.715 -27.2749 125.84 -25.4464 131.136 -25.3869L377.179 -22.6276C385.815 -22.5308 393.823 -27.1297 398.091 -34.6374L486.994 -191.001C491.263 -198.509 491.12 -207.742 486.62 -215.113L358.422 -425.137C355.662 -429.659 351.469 -433.128 346.512 -434.993L86.07 -532.961C80.0057 -535.242 73.2721 -534.947 67.431 -532.143L-114.226 -444.951Z" stroke="#338600" stroke-width="2.5"/>
<path opacity="0.333333" d="M-108.463 -472.498C-117.562 -468.68 -123.352 -459.634 -123.009 -449.772L-116.059 -250.108C-115.834 -243.621 -112.962 -237.508 -108.114 -233.192L97.3162 -50.3575C101.289 -46.8213 106.335 -44.7217 111.644 -44.3942L354.608 -29.4062C363.211 -28.8755 371.427 -33.0479 376.074 -40.3078L472.37 -190.76C477.017 -198.02 477.365 -207.228 473.28 -214.818L357.922 -429.176C355.401 -433.859 351.381 -437.561 346.506 -439.688L94.447 -549.67C88.4975 -552.266 81.7444 -552.314 75.7589 -549.802L-108.463 -472.498Z" stroke="#338600" stroke-width="2.5"/>
<path opacity="0.347826" d="M-102.166 -499.202C-111.408 -495.858 -117.636 -487.166 -117.83 -477.339L-121.746 -279.306C-121.874 -272.804 -119.331 -266.534 -114.709 -261.959L78.4186 -70.7651C82.2144 -67.0073 87.167 -64.6389 92.4749 -64.0421L331.761 -37.1385C340.31 -36.1774 348.71 -39.9142 353.721 -46.9071L457.038 -191.106C462.048 -198.099 462.885 -207.255 459.226 -215.041L356.806 -432.968C354.534 -437.802 350.699 -441.73 345.92 -444.115L102.778 -565.506C96.9602 -568.411 90.2053 -568.803 84.0901 -566.59L-102.166 -499.202Z" stroke="#338600" stroke-width="2.5"/>
<path opacity="0.362319" d="M-95.384 -525.038C-104.746 -522.173 -111.39 -513.856 -112.117 -504.093L-126.706 -308.276C-127.191 -301.779 -124.983 -295.368 -120.603 -290.544L59.9177 -91.7753C63.5239 -87.8045 68.3681 -85.1706 73.6615 -84.3039L308.698 -45.8252C317.17 -44.4383 325.731 -47.7315 331.089 -54.4388L441.039 -192.066C446.398 -198.774 447.719 -207.851 444.496 -215.808L355.065 -436.545C353.051 -441.517 349.412 -445.66 344.743 -448.3L111.018 -580.472C105.347 -583.679 98.6067 -584.416 92.3766 -582.509L-95.384 -525.038Z" stroke="#338600" stroke-width="2.5"/>
<path opacity="0.376812" d="M-88.1758 -549.99C-97.631 -547.606 -104.669 -539.685 -105.923 -530.015L-130.963 -336.982C-131.803 -330.509 -129.941 -323.975 -125.815 -318.916L41.8412 -113.361C45.2462 -109.187 49.9694 -106.294 55.2354 -105.158L285.47 -55.4708C293.844 -53.6634 302.544 -56.5063 308.235 -62.9111L424.415 -193.671C430.105 -200.076 431.905 -209.049 429.125 -217.153L352.692 -439.942C350.944 -445.038 347.516 -449.388 342.969 -452.278L119.116 -594.583C113.607 -598.085 106.899 -599.165 100.569 -597.57L-88.1758 -549.99Z" stroke="#338600" stroke-width="2.5"/>
<path opacity="0.391304" d="M-80.6712 -573.918C-90.1946 -572.019 -97.6022 -564.512 -99.3758 -554.965L-134.614 -365.268C-135.808 -358.837 -134.298 -352.199 -130.439 -346.918L24.1416 -135.374C27.3341 -131.005 31.9231 -127.857 37.1484 -126.451L262.059 -65.9501C270.315 -63.7293 279.128 -66.1177 285.133 -72.2029L407.13 -195.824C413.135 -201.909 415.407 -210.753 413.077 -218.979L349.608 -443.071C348.134 -448.277 344.925 -452.824 340.514 -455.958L126.946 -607.73C121.615 -611.519 114.957 -612.941 108.543 -611.661L-80.6712 -573.918Z" stroke="#338600" stroke-width="2.5"/>
<path opacity="0.405797" d="M-72.6918 -597.187C-82.258 -595.771 -90.0108 -588.697 -92.2942 -579.301L-137.449 -393.471C-138.997 -387.104 -137.843 -380.379 -134.264 -374.89L7.08005 -158.157C10.0491 -153.604 14.4908 -150.208 19.6621 -148.534L238.755 -77.6357C246.871 -75.0093 255.773 -76.9377 262.075 -82.6878L389.463 -198.923C395.765 -204.673 398.499 -213.362 396.625 -221.684L346.042 -446.339C344.849 -451.642 341.872 -456.375 337.609 -459.747L134.698 -620.304C129.559 -624.371 122.968 -626.133 116.485 -625.174L-72.6918 -597.187Z" stroke="#338600" stroke-width="2.5"/>
</svg>
