<svg width="862" height="603" viewBox="0 0 862 603" fill="none" xmlns="http://www.w3.org/2000/svg">
<path opacity="0.0144928" d="M900.203 302.584C902.606 292.276 897.897 281.622 888.656 276.46L680.984 160.443C675.52 157.391 669.071 156.619 663.041 158.295L329.385 251.052C324.642 252.371 320.426 255.13 317.32 258.95L127.093 492.863C121.461 499.788 120.187 509.286 123.796 517.45L207.135 706.002C210.744 714.166 218.625 719.617 227.537 720.114L528.569 736.889C533.484 737.163 538.363 735.903 542.53 733.284L835.72 548.973C841.019 545.642 844.789 540.354 846.21 534.258L900.203 302.584Z" stroke="#338600" stroke-width="2.5"/>
<path opacity="0.0289855" d="M908.757 340.027C911.671 329.881 907.539 319.029 898.615 313.391L698.979 187.276C693.679 183.928 687.271 182.811 681.151 184.168L346.219 258.474C341.399 259.544 337.031 262.089 333.724 265.756L133.591 487.701C127.621 494.321 125.861 503.727 129.033 512.057L201.942 703.535C205.114 711.865 212.684 717.718 221.545 718.692L518.612 751.315C523.52 751.854 528.474 750.85 532.785 748.443L832.315 581.162C837.788 578.106 841.831 573.009 843.561 566.984L908.757 340.027Z" stroke="#338600" stroke-width="2.5"/>
<path opacity="0.0434783" d="M916.11 377.47C919.526 367.512 915.979 356.493 907.395 350.398L716.277 214.705C711.158 211.071 704.808 209.611 698.615 210.645L363.417 266.623C358.532 267.439 354.024 269.761 350.524 273.266L141.208 482.85C134.917 489.149 132.677 498.438 135.405 506.912L197.807 700.744C200.535 709.218 207.774 715.455 216.558 716.901L508.834 765.003C513.721 765.807 518.737 765.063 523.18 762.876L828.078 612.78C833.711 610.007 838.017 605.117 840.054 599.178L916.11 377.47Z" stroke="#338600" stroke-width="2.5"/>
<path opacity="0.057971" d="M922.275 414.846C926.181 405.1 923.224 393.946 915.004 387.415L732.854 242.688C727.931 238.777 721.658 236.976 715.41 237.683L380.938 275.511C376.001 276.069 371.363 278.162 367.678 281.494L149.92 478.369C143.325 484.331 140.612 493.478 142.89 502.072L194.74 697.688C197.018 706.281 203.905 712.883 212.587 714.796L499.272 777.964C504.124 779.033 509.189 778.554 513.754 776.593L823.051 643.782C828.828 641.302 833.386 636.631 835.725 630.795L922.275 414.846Z" stroke="#338600" stroke-width="2.5"/>
<path opacity="0.0724638" d="M927.266 452.09C931.648 442.582 929.287 431.325 921.453 424.379L748.689 271.182C743.977 267.004 737.799 264.868 731.513 265.244L398.739 285.153C393.764 285.45 389.009 287.306 385.146 290.455L159.695 474.317C152.815 479.928 149.639 488.908 151.461 497.598L192.744 694.428C194.567 703.117 201.084 710.065 209.639 712.438L489.966 790.217C494.768 791.55 499.868 791.338 504.543 789.611L817.273 674.132C823.18 671.95 827.979 667.512 830.615 661.793L927.266 452.09Z" stroke="#338600" stroke-width="2.5"/>
<path opacity="0.0869565" d="M931.103 489.144C935.947 479.896 934.184 468.568 926.759 461.23L763.76 300.148C759.275 295.715 753.21 293.248 746.903 293.291L416.777 295.563C411.778 295.598 406.917 297.209 402.886 300.167L170.502 470.751C163.355 475.997 159.724 484.788 161.088 493.549L191.82 691.028C193.183 699.789 199.313 707.061 207.716 709.887L480.949 801.787C485.687 803.38 490.808 803.438 495.582 801.952L810.786 703.796C816.807 701.921 821.836 697.728 824.763 692.141L931.103 489.144Z" stroke="#338600" stroke-width="2.5"/>
<path opacity="0.101449" d="M933.806 525.942C939.097 516.977 937.934 505.611 930.936 497.904L778.051 329.536C773.804 324.86 767.87 322.067 761.56 321.777L435.01 306.744C430 306.514 425.045 307.875 420.856 310.634L182.302 467.722C174.908 472.591 170.835 481.169 171.737 489.976L191.964 687.544C192.865 696.352 198.591 703.927 206.819 707.197L472.255 812.686C476.916 814.539 482.044 814.868 486.904 813.627L803.634 732.737C809.754 731.174 814.999 727.237 818.209 721.797L933.806 525.942Z" stroke="#338600" stroke-width="2.5"/>
<path opacity="0.115942" d="M935.403 562.423C941.124 553.763 940.559 542.391 934.008 534.341L791.548 359.3C787.554 354.393 781.768 351.283 775.472 350.658L453.395 318.702C448.387 318.206 443.351 319.312 439.013 321.862L195.059 465.279C187.438 469.759 182.936 478.102 183.375 486.931L193.172 684.034C193.611 692.864 198.917 700.719 206.945 704.422L463.919 822.94C468.488 825.048 473.609 825.649 478.543 824.658L795.864 760.922C802.066 759.676 807.516 756.007 811.003 750.728L935.403 562.423Z" stroke="#338600" stroke-width="2.5"/>
<path opacity="0.130435" d="M935.918 598.531C942.052 590.196 942.082 578.849 935.994 570.481L804.234 389.395C800.505 384.271 794.884 380.85 788.621 379.892L471.885 331.439C466.894 330.676 461.79 331.523 457.313 333.857L208.728 463.469C200.901 467.551 195.982 475.637 195.958 484.464L195.43 680.554C195.406 689.382 200.28 697.495 208.086 701.619L455.968 832.569C460.432 834.928 465.532 835.802 470.526 835.066L787.519 788.324C793.788 787.399 799.427 784.008 803.183 778.904L935.918 598.531Z" stroke="#338600" stroke-width="2.5"/>
<path opacity="0.144928" d="M935.386 634.209C941.913 626.219 942.535 614.928 936.925 606.269L816.103 419.774C812.652 414.447 807.213 410.724 800.998 409.434L490.439 344.956C485.479 343.926 480.32 344.51 475.715 346.621L223.269 462.339C215.257 466.012 209.937 473.82 209.452 482.621L198.73 677.164C198.245 685.965 202.674 694.311 210.235 698.842L448.435 841.601C452.78 844.205 457.845 845.352 462.888 844.873L778.651 814.915C784.97 814.315 790.785 811.212 794.8 806.296L935.386 634.209Z" stroke="#338600" stroke-width="2.5"/>
<path opacity="0.173913" d="M931.318 704.07C938.573 696.825 940.359 685.742 935.747 676.584L837.365 481.211C834.501 475.524 829.473 471.225 823.411 469.279L527.572 374.33C522.715 372.771 517.485 372.817 512.657 374.462L254.781 462.29C246.462 465.123 240.389 472.318 238.991 480.994L208.391 670.877C206.993 679.552 210.499 688.29 217.506 693.593L434.737 857.985C438.804 861.063 443.755 862.751 448.855 862.797L759.545 865.59C765.912 865.647 772.036 863.145 776.541 858.646L931.318 704.07Z" stroke="#338600" stroke-width="2.5"/>
<path opacity="0.188406" d="M927.856 738.153C935.443 731.305 937.798 720.371 933.703 711.006L846.748 512.176C844.192 506.332 839.393 501.762 833.432 499.494L546.062 390.173C541.278 388.353 536.033 388.128 531.11 389.53L271.651 463.447C263.213 465.851 256.787 472.71 254.94 481.287L214.708 668.086C212.861 676.663 215.893 685.56 222.593 691.224L428.62 865.395C432.529 868.7 437.402 870.653 442.511 870.964L749.405 889.636C755.771 890.023 762.026 887.833 766.76 883.56L927.856 738.153Z" stroke="#338600" stroke-width="2.5"/>
<path opacity="0.202899" d="M923.496 771.605C931.393 765.169 934.306 754.413 930.736 744.872L855.297 543.238C853.059 537.254 848.504 532.425 842.661 529.84L564.444 406.774C559.746 404.696 554.502 404.197 549.496 405.352L289.195 465.431C280.66 467.401 273.902 473.909 271.612 482.363L221.986 665.594C219.696 674.049 222.246 683.078 228.62 689.086L423.023 872.317C426.761 875.841 431.541 878.057 436.645 878.634L738.941 912.796C745.289 913.513 751.659 911.642 756.611 907.606L923.496 771.605Z" stroke="#338600" stroke-width="2.5"/>
<path opacity="0.217391" d="M918.285 804.386C926.469 798.376 929.928 787.828 926.892 778.139L863.019 574.358C861.105 568.252 856.808 563.176 851.1 560.281L582.682 424.124C578.084 421.792 572.852 421.02 567.776 421.923L307.364 468.277C298.754 469.81 291.683 475.951 288.959 484.26L230.2 663.456C227.475 671.765 229.537 680.9 235.567 687.233L417.968 878.79C421.523 882.523 426.197 884.998 431.283 885.841L728.208 935.064C734.521 936.11 740.99 934.565 746.148 930.777L918.285 804.386Z" stroke="#338600" stroke-width="2.5"/>
<path opacity="0.231884" d="M912.267 836.457C920.715 830.886 924.706 820.573 922.208 810.766L869.918 605.493C868.336 599.281 864.31 593.972 858.754 590.774L600.733 442.212C596.248 439.63 591.042 438.583 585.908 439.231L326.101 472.015C317.439 473.108 310.076 478.866 306.925 487.008L239.319 661.718C236.169 669.86 237.738 679.075 243.408 685.713L413.474 884.843C416.835 888.778 421.389 891.508 426.444 892.617L717.258 956.435C723.519 957.809 730.07 956.592 735.422 953.063L912.267 836.457Z" stroke="#338600" stroke-width="2.5"/>
<path opacity="0.246377" d="M905.488 867.776C914.177 862.656 918.684 852.606 916.729 842.712L876 636.594C874.755 630.295 871.012 624.768 865.625 621.273L618.556 461.017C614.199 458.191 609.034 456.871 603.854 457.26L345.35 476.662C336.66 477.315 329.024 482.675 325.458 490.627L249.311 660.423C245.744 668.375 246.82 677.642 252.113 684.566L409.559 890.508C412.714 894.634 417.134 897.613 422.143 898.987L706.141 976.897C712.333 978.596 718.95 977.715 724.482 974.454L905.488 867.776Z" stroke="#338600" stroke-width="2.5"/>
<path opacity="0.26087" d="M898.003 898.314C906.907 893.653 911.913 883.893 910.504 873.942L881.278 667.622C880.376 661.253 876.928 655.521 871.724 651.74L636.118 480.528C631.9 477.463 626.791 475.87 621.578 475.997L365.06 482.243C356.362 482.455 348.476 487.405 344.506 495.147L260.145 659.616C256.174 667.357 256.754 676.65 261.656 683.838L406.24 895.82C409.178 900.128 413.452 903.349 418.402 904.986L694.912 996.453C701.02 998.473 707.685 997.93 713.385 994.947L898.003 898.314Z" stroke="#338600" stroke-width="2.5"/>
<path opacity="0.275362" d="M889.856 928.035C898.952 923.843 904.44 914.397 903.576 904.419L885.761 698.531C885.205 692.111 882.064 686.192 877.059 682.133L653.378 500.719C649.313 497.422 644.273 495.56 639.04 495.423L385.168 488.771C376.486 488.544 368.373 493.074 364.01 500.583L271.783 659.335C267.42 666.845 267.504 676.137 272.002 683.566L403.529 900.813C406.24 905.29 410.353 908.747 415.231 910.646L683.62 1015.1C689.626 1017.44 696.324 1017.24 702.176 1014.54L889.856 928.035Z" stroke="#338600" stroke-width="2.5"/>
<path opacity="0.289855" d="M881.103 956.912C890.364 953.196 896.314 944.087 895.996 934.113L889.462 729.281C889.257 722.829 886.433 716.738 881.641 712.412L670.3 521.571C666.401 518.05 661.443 515.921 656.204 515.518L405.618 496.26C396.975 495.596 388.656 499.694 383.915 506.951L284.185 659.619C279.444 666.876 279.034 676.141 283.116 683.789L401.437 905.52C403.91 910.156 407.852 913.84 412.644 915.996L672.318 1032.85C678.205 1035.5 684.917 1035.64 690.908 1033.23L881.103 956.912Z" stroke="#338600" stroke-width="2.5"/>
<path opacity="0.304348" d="M871.799 984.924C881.2 981.69 887.592 972.941 887.817 963.002L892.403 759.836C892.549 753.37 890.052 747.124 885.489 742.541L686.855 543.065C683.132 539.327 678.271 536.934 673.038 536.265L426.355 504.724C417.772 503.627 409.272 507.285 404.167 514.271L297.318 660.506C292.213 667.492 291.311 676.702 294.965 684.546L399.977 909.979C402.205 914.761 405.961 918.666 410.654 921.076L661.058 1049.7C666.811 1052.65 673.52 1053.14 679.635 1051.03L871.799 984.924Z" stroke="#338600" stroke-width="2.5"/>
<path opacity="0.318841" d="M861.997 1012.05C871.513 1009.3 878.325 1000.93 879.087 991.056L894.602 790.155C895.101 783.695 892.938 777.311 888.617 772.484L703.009 565.173C699.476 561.227 694.725 558.575 689.511 557.639L447.323 514.168C438.822 512.642 430.164 515.851 424.711 522.548L311.138 662.028C305.685 668.725 304.297 677.854 307.514 685.869L399.158 914.225C401.131 919.141 404.691 923.257 409.271 925.917L649.89 1065.67C655.493 1068.92 662.183 1069.74 668.407 1067.95L861.997 1012.05Z" stroke="#338600" stroke-width="2.5"/>
<path opacity="0.333333" d="M851.751 1038.26C861.356 1036 868.565 1028.04 869.859 1018.25L896.074 820.197C896.926 813.762 895.107 807.258 891.04 802.199L718.728 587.866C715.396 583.72 710.768 580.814 705.586 579.612L468.46 524.591C460.064 522.643 451.27 525.397 445.485 531.787L325.6 664.213C319.816 670.603 317.948 679.626 320.719 687.788L398.982 918.291C400.692 923.327 404.043 927.644 408.499 930.549L638.862 1080.76C644.299 1084.3 650.951 1085.47 657.27 1083.98L851.751 1038.26Z" stroke="#338600" stroke-width="2.5"/>
<path opacity="0.347826" d="M841.117 1063.55C850.786 1061.78 858.367 1054.24 860.187 1044.58L896.847 849.934C898.05 843.543 896.58 836.938 892.78 831.661L733.985 611.121C730.864 606.787 726.372 603.631 721.236 602.163L489.711 536C481.439 533.637 472.536 535.931 466.436 541.997L340.664 667.093C334.565 673.16 332.223 682.051 334.542 690.335L399.454 922.215C400.894 927.359 404.026 931.868 408.344 935.012L628.022 1095C633.279 1098.82 639.876 1100.33 646.273 1099.16L841.117 1063.55Z" stroke="#338600" stroke-width="2.5"/>
<path opacity="0.362319" d="M830.15 1087.91C839.857 1086.63 847.787 1079.53 850.121 1070.02L896.941 879.325C898.494 872.997 897.379 866.31 893.858 860.827L748.751 634.905C745.852 630.392 741.511 626.992 736.434 625.261L511.017 548.387C502.891 545.616 493.903 547.446 487.508 553.173L356.282 670.69C349.887 676.417 347.081 685.15 348.942 693.531L400.579 926.031C401.742 931.268 404.644 935.956 408.811 939.333L617.418 1108.39C622.48 1112.49 629.005 1114.33 635.465 1113.49L830.15 1087.91Z" stroke="#338600" stroke-width="2.5"/>
<path opacity="0.376812" d="M818.909 1111.32C828.629 1110.53 836.881 1103.89 839.72 1094.56L896.384 908.34C898.284 902.095 897.53 895.342 894.299 889.67L763.003 659.187C760.336 654.506 756.157 650.871 751.152 648.878L532.327 561.746C524.367 558.577 515.317 559.939 508.644 565.313L372.412 675.025C365.739 680.399 362.478 688.951 363.878 697.403L402.356 929.774C403.236 935.089 405.897 939.947 409.902 943.55L607.095 1120.96C611.948 1125.33 618.384 1127.51 624.891 1126.98L818.909 1111.32Z" stroke="#338600" stroke-width="2.5"/>
<path opacity="0.391304" d="M807.545 1133.67C817.252 1133.38 825.8 1127.2 829.131 1118.08L895.3 936.839C897.543 930.695 897.153 923.899 894.222 918.052L776.812 683.827C774.387 678.99 770.383 675.125 765.463 672.874L553.678 575.958C545.904 572.401 536.817 573.296 529.887 578.303L389.101 680.011C382.171 685.018 378.466 693.363 379.401 701.861L404.879 933.371C405.471 938.749 407.883 943.765 411.713 947.586L597.195 1132.63C601.825 1137.25 608.156 1139.76 614.693 1139.56L807.545 1133.67Z" stroke="#338600" stroke-width="2.5"/>
<path opacity="0.405797" d="M795.822 1155.3C805.491 1155.49 814.308 1149.8 818.116 1140.91L893.425 965.123C896.006 959.099 895.982 952.277 893.361 946.271L789.865 709.121C787.691 704.139 783.873 700.054 779.05 697.547L574.725 591.342C567.156 587.407 558.058 587.835 550.891 592.462L406.011 685.994C398.844 690.621 394.708 698.737 395.178 707.255L407.854 937.185C408.154 942.612 410.306 947.772 413.951 951.804L587.468 1143.75C591.862 1148.61 598.071 1151.44 604.623 1151.57L795.822 1155.3Z" stroke="#338600" stroke-width="2.5"/>
<path opacity="0.449275" d="M760.506 1214.18C769.914 1215.79 779.371 1211.61 784.515 1203.56L884.817 1046.77C888.37 1041.22 889.454 1034.44 887.811 1028.05L825.753 786.93C824.379 781.592 821.192 776.899 816.738 773.654L636.982 642.693C630.134 637.703 621.146 636.74 613.396 640.166L459.044 708.39C451.294 711.815 445.957 719.11 445.037 727.533L420.887 948.621C420.288 954.1 421.614 959.616 424.636 964.224L561.18 1172.43C564.795 1177.94 570.539 1181.7 577.037 1182.81L760.506 1214.18Z" stroke="#338600" stroke-width="2.5"/>
<path opacity="0.42029" d="M784.085 1175.86C793.691 1176.53 802.75 1171.34 807.02 1162.71L891.079 992.832C893.991 986.947 894.337 980.118 892.034 973.969L802.431 734.702C800.516 729.588 796.897 725.291 792.185 722.533L595.707 607.547C588.361 603.248 579.275 603.208 571.892 607.444L423.383 692.652C416 696.889 411.449 704.753 411.454 713.265L411.566 940.918C411.569 946.378 413.454 951.67 416.902 955.903L578.245 1154.01C582.391 1159.1 588.461 1162.25 595.011 1162.7L784.085 1175.86Z" stroke="#338600" stroke-width="2.5"/>
<path opacity="0.5" d="M772.297 1195.49C781.816 1196.63 791.088 1191.94 795.804 1183.59L888.201 1020.06C891.437 1014.33 892.152 1007.51 890.176 1001.24L814.401 760.651C812.753 755.419 809.344 750.918 804.755 747.914L616.478 624.672C609.372 620.021 600.323 619.517 592.745 623.353L441.08 700.116C433.502 703.951 428.549 711.541 428.09 720.022L415.915 944.719C415.619 950.196 417.227 955.608 420.467 960.034L569.471 1163.56C573.357 1168.87 579.272 1172.33 585.805 1173.11L772.297 1195.49Z" stroke="#338600" stroke-width="2.5"/>
</svg>
