<svg width="767" height="977" viewBox="0 0 767 977" fill="none" xmlns="http://www.w3.org/2000/svg">
<path opacity="0.0144928" d="M431.537 944.721C442.028 943.314 450.321 935.135 451.874 924.664L486.759 689.355C487.677 683.163 486.114 676.86 482.408 671.815L277.423 392.689C274.509 388.722 270.434 385.757 265.762 384.207L-20.3865 289.227C-28.8577 286.416 -38.1908 288.591 -44.5459 294.858L-191.323 439.612C-197.678 445.88 -199.982 455.182 -197.288 463.691L-106.287 751.128C-104.801 755.821 -101.894 759.938 -97.9677 762.906L178.287 971.744C183.281 975.519 189.562 977.17 195.766 976.338L431.537 944.721Z" stroke="#338600" stroke-width="2.5"/>
<path opacity="0.0289855" d="M399.556 965.988C410.077 965.118 418.76 957.408 420.869 947.064L468.046 715.691C469.299 709.549 468.072 703.16 464.634 697.918L276.449 411.061C273.74 406.933 269.813 403.75 265.212 401.958L-13.2563 293.474C-21.5623 290.238 -30.981 291.925 -37.6467 297.843L-190.856 433.881C-197.522 439.799 -200.312 448.953 -198.082 457.583L-123.306 746.93C-122.07 751.71 -119.376 755.987 -115.597 759.165L146.981 979.968C151.779 984.002 157.977 985.976 164.225 985.46L399.556 965.988Z" stroke="#338600" stroke-width="2.5"/>
<path opacity="0.0434783" d="M367.15 986.135C377.672 985.8 386.719 978.578 389.376 968.391L448.527 741.587C450.112 735.512 449.226 729.057 446.065 723.633L274.924 430.031C272.429 425.752 268.66 422.36 264.143 420.33L-6.02085 298.878C-14.1405 295.228 -23.6204 296.425 -30.5776 301.979L-189.712 429.026C-196.669 434.58 -199.937 443.56 -198.175 452.286L-139.57 742.638C-138.59 747.493 -136.117 751.92 -132.497 755.299L115.914 987.212C120.503 991.497 126.602 993.79 132.877 993.59L367.15 986.135Z" stroke="#338600" stroke-width="2.5"/>
<path opacity="0.057971" d="M334.385 1005.15C344.882 1005.34 354.264 998.626 357.458 988.625L428.236 767.006C430.149 761.016 429.609 754.512 426.734 748.92L272.822 449.564C270.551 445.146 266.95 441.551 262.529 439.286L1.25751 305.435C-6.65498 301.382 -16.1695 302.087 -23.3981 307.262L-187.941 425.074C-195.17 430.25 -198.902 439.03 -197.614 447.827L-155.078 738.291C-154.359 743.206 -152.115 747.773 -148.664 751.347L85.1425 993.498C89.5099 998.021 95.4926 1000.63 101.779 1000.75L334.385 1005.15Z" stroke="#338600" stroke-width="2.5"/>
<path opacity="0.0724638" d="M301.325 1023.01C311.77 1023.74 321.459 1017.54 325.178 1007.76L407.202 791.911C409.439 786.024 409.247 779.491 406.668 773.746L270.114 469.627C268.073 465.081 264.652 461.291 260.338 458.796L8.50981 313.141C0.82442 308.695 -8.69879 308.908 -16.1782 313.692L-185.602 422.053C-193.081 426.837 -197.268 435.393 -196.455 444.234L-169.836 733.93C-169.38 738.893 -167.374 743.587 -164.103 747.347L54.714 998.851C58.8473 1003.6 64.6982 1006.52 70.9801 1006.95L301.325 1023.01Z" stroke="#338600" stroke-width="2.5"/>
<path opacity="0.0869565" d="M268.037 1039.73C278.401 1040.98 288.369 1035.32 292.6 1025.78L385.458 816.27C388.014 810.504 388.171 803.959 385.896 798.077L266.772 490.184C264.968 485.522 261.739 481.547 257.544 478.827L15.674 321.982C8.23518 317.158 -1.27161 316.879 -8.98039 321.258L-182.75 419.983C-190.459 424.363 -195.087 432.672 -194.751 441.532L-183.85 729.599C-183.661 734.595 -181.9 739.404 -178.818 743.341L24.6761 1003.3C28.5636 1008.26 34.2668 1011.48 40.5279 1012.24L268.037 1039.73Z" stroke="#338600" stroke-width="2.5"/>
<path opacity="0.101449" d="M234.585 1055.3C244.843 1057.07 255.059 1051.96 259.786 1042.68L363.042 840.048C365.91 834.42 366.418 827.881 364.454 821.878L262.779 511.196C261.219 506.43 258.189 502.279 254.125 499.339L22.6884 331.942C15.5147 326.754 6.05063 325.986 -1.86557 329.95L-179.441 418.883C-187.357 422.848 -192.412 430.887 -192.554 439.739L-197.124 725.333C-197.204 730.348 -195.695 735.259 -192.812 739.364L-4.92091 1006.87C-1.29026 1012.04 4.25 1015.55 10.4746 1016.62L234.585 1055.3Z" stroke="#338600" stroke-width="2.5"/>
<path opacity="0.115942" d="M201.038 1069.72C211.164 1072 221.598 1067.44 226.803 1058.47L339.994 863.217C343.167 857.744 344.024 851.23 342.377 845.122L258.113 532.625C256.803 527.767 253.983 523.45 250.061 520.297L29.4945 343.005C22.604 337.466 13.2075 336.214 5.10658 339.753L-175.73 418.768C-183.831 422.308 -189.297 430.054 -189.914 438.873L-209.666 721.171C-210.017 726.191 -208.764 731.192 -206.089 735.454L-34.0303 1009.59C-30.667 1014.95 -25.3046 1018.74 -19.1326 1020.13L201.038 1069.72Z" stroke="#338600" stroke-width="2.5"/>
<path opacity="0.130435" d="M167.457 1083C177.424 1085.78 188.046 1081.79 193.713 1073.13L316.348 885.745C319.818 880.443 321.025 873.974 319.701 867.778L252.755 554.429C251.701 549.492 249.099 545.019 245.33 541.66L36.0309 355.146C29.4403 349.273 20.1361 347.539 11.8731 350.646L-171.677 419.647C-179.94 422.753 -185.799 430.186 -186.888 438.947L-221.488 717.149C-222.111 722.159 -221.121 727.238 -218.663 731.647L-62.6105 1011.5C-59.5244 1017.03 -54.3542 1021.1 -48.2507 1022.81L167.457 1083Z" stroke="#338600" stroke-width="2.5"/>
<path opacity="0.144928" d="M133.906 1095.15C143.691 1098.42 154.469 1095 160.577 1086.69L292.148 907.611C295.905 902.496 297.459 896.09 296.464 889.822L246.692 576.57C245.897 571.567 243.523 566.949 239.917 563.391L42.2415 368.343C35.9672 362.152 26.7806 359.944 18.3788 362.61L-167.336 421.531C-175.738 424.197 -181.973 431.297 -183.53 439.973L-232.603 713.306C-233.498 718.292 -232.776 723.434 -230.541 727.98L-90.6186 1012.63C-87.8187 1018.33 -82.8553 1022.66 -76.8361 1024.68L133.906 1095.15Z" stroke="#338600" stroke-width="2.5"/>
<path opacity="0.173913" d="M67.1375 1116.1C76.4837 1120.32 87.4805 1118.06 94.4094 1110.5L242.234 949.266C246.537 944.573 248.775 938.348 248.446 931.989L232.384 621.702C232.121 616.608 230.224 611.734 226.975 607.802L53.4549 397.791C47.8577 391.017 38.9772 387.887 30.3693 389.655L-158.034 428.337C-166.641 430.104 -173.57 436.48 -176.045 444.911L-252.779 706.304C-254.215 711.198 -254.039 716.425 -252.274 721.211L-144.775 1012.72C-142.572 1018.7 -138.063 1023.54 -132.259 1026.16L67.1375 1116.1Z" stroke="#338600" stroke-width="2.5"/>
<path opacity="0.188406" d="M34.0394 1124.95C43.132 1129.61 54.1914 1127.94 61.4966 1120.79L216.604 969.014C221.163 964.554 223.736 958.446 223.744 952.068L224.123 644.607C224.129 639.488 222.481 634.504 219.425 630.398L58.3522 413.976C53.114 406.938 44.4222 403.361 35.7473 404.673L-153.185 433.255C-161.86 434.567 -169.105 440.556 -172.026 448.828L-261.875 703.21C-263.58 708.037 -263.68 713.285 -262.16 718.173L-170.854 1011.76C-168.96 1017.85 -164.696 1022.93 -159.022 1025.84L34.0394 1124.95Z" stroke="#338600" stroke-width="2.5"/>
<path opacity="0.202899" d="M1.21401 1132.72C10.0309 1137.83 21.1209 1136.74 28.778 1130.02L190.588 988.018C195.39 983.804 198.291 977.833 198.637 971.454L215.114 667.68C215.392 662.551 214 657.469 211.146 653.198L62.7147 431.085C57.8478 423.802 49.3672 419.79 40.6496 420.645L-148.276 439.178C-156.993 440.033 -164.532 445.617 -167.891 453.707L-270.332 700.43C-272.302 705.174 -272.681 710.429 -271.411 715.406L-196.22 1010.19C-194.641 1016.38 -190.634 1021.67 -185.105 1024.87L1.21401 1132.72Z" stroke="#338600" stroke-width="2.5"/>
<path opacity="0.217391" d="M-31.2857 1139.47C-22.7655 1144.99 -11.676 1144.49 -3.69213 1138.22L164.224 1006.27C169.256 1002.31 172.479 996.496 173.164 990.134L205.354 690.883C205.905 685.757 204.773 680.591 202.129 676.164L66.4919 449.083C62.0074 441.576 53.7596 437.14 45.0237 437.537L-143.365 446.101C-152.101 446.498 -159.912 451.663 -163.697 459.547L-278.176 697.997C-280.407 702.644 -281.065 707.892 -280.051 712.947L-220.846 1008.04C-219.587 1014.32 -215.85 1019.82 -210.48 1023.3L-31.2857 1139.47Z" stroke="#338600" stroke-width="2.5"/>
<path opacity="0.231884" d="M-63.4079 1145.21C-55.2044 1151.13 -44.1466 1151.21 -35.8617 1145.4L137.556 1023.75C142.804 1020.07 146.341 1014.43 147.363 1008.1L194.837 714.172C195.662 709.064 194.797 703.825 192.371 699.254L69.6373 467.929C65.5454 460.217 57.552 455.372 48.822 455.312L-138.508 454.012C-147.239 453.952 -155.298 458.685 -159.497 466.34L-285.429 695.939C-287.917 700.477 -288.856 705.703 -288.102 710.823L-244.711 1005.38C-243.776 1011.72 -240.317 1017.41 -235.121 1021.17L-63.4079 1145.21Z" stroke="#338600" stroke-width="2.5"/>
<path opacity="0.246377" d="M-95.0972 1149.97C-87.2295 1156.28 -76.2347 1156.93 -67.6758 1151.6L110.628 1040.46C116.078 1037.07 119.92 1031.61 121.278 1025.33L183.569 737.504C184.668 732.427 184.071 727.13 181.872 722.425L72.1137 487.576C68.4236 479.681 60.7054 474.441 52.0056 473.924L-133.756 462.896C-142.456 462.38 -150.741 466.67 -155.339 474.073L-292.114 694.286C-294.854 698.699 -296.073 703.888 -295.582 709.059L-267.785 1002.23C-267.179 1008.63 -264.01 1014.5 -259 1018.52L-95.0972 1149.97Z" stroke="#338600" stroke-width="2.5"/>
<path opacity="0.26087" d="M-126.306 1153.79C-118.792 1160.47 -107.89 1161.69 -99.0847 1156.84L83.4853 1056.39C89.1213 1053.29 93.2588 1048.04 94.9508 1041.83L171.549 760.84C172.921 755.81 172.599 750.467 170.633 745.638L73.8807 507.983C70.6001 499.925 63.176 494.306 54.5299 493.337L-129.162 472.741C-137.808 471.771 -146.292 475.607 -151.276 482.738L-298.257 693.065C-301.244 697.339 -302.741 702.477 -302.518 707.687L-290.051 998.665C-289.775 1005.09 -286.905 1011.13 -282.096 1015.4L-126.306 1153.79Z" stroke="#338600" stroke-width="2.5"/>
<path opacity="0.275362" d="M-156.985 1156.71C-149.841 1163.73 -139.063 1165.51 -130.039 1161.17L56.1711 1071.54C61.9777 1068.75 66.3988 1063.71 68.4208 1057.59L158.786 784.136C160.428 779.166 160.382 773.793 158.656 768.852L74.9025 529.101C72.0383 520.902 64.927 514.92 56.3588 513.502L-124.775 483.524C-133.343 482.106 -142.002 485.478 -147.355 492.317L-303.887 692.3C-307.113 696.422 -308.888 701.493 -308.934 706.727L-311.491 994.716C-311.549 1001.16 -308.985 1007.35 -304.388 1011.87L-156.985 1156.71Z" stroke="#338600" stroke-width="2.5"/>
<path opacity="0.289855" d="M-187.089 1158.76C-180.332 1166.1 -169.705 1168.44 -160.492 1164.6L28.7289 1085.9C34.6895 1083.42 39.3837 1078.62 41.7314 1072.61L145.284 807.35C147.195 802.455 147.429 797.065 145.948 792.023L75.1472 550.877C72.705 542.56 65.9249 536.233 57.4581 534.372L-120.644 495.222C-129.111 493.361 -137.92 496.261 -143.625 502.788L-309.03 692.011C-312.488 695.968 -314.536 700.959 -314.854 706.204L-332.091 990.436C-332.481 996.88 -330.232 1003.21 -325.861 1007.96L-187.089 1158.76Z" stroke="#338600" stroke-width="2.5"/>
<path opacity="0.304348" d="M-216.581 1159.98C-210.224 1167.63 -199.779 1170.51 -190.405 1167.19L1.19994 1099.48C7.29774 1097.32 12.2533 1092.78 14.9214 1086.88L131.052 830.448C133.229 825.642 133.743 820.248 132.514 815.118L74.5821 573.268C72.5664 564.854 66.1334 558.201 57.7912 555.904L-116.82 507.816C-125.162 505.519 -134.094 507.94 -140.133 514.136L-313.717 692.227C-317.399 696.005 -319.719 700.901 -320.31 706.144L-351.84 985.879C-352.564 992.306 -350.637 998.75 -346.502 1003.72L-216.581 1159.98Z" stroke="#338600" stroke-width="2.5"/>
<path opacity="0.318841" d="M-245.415 1160.43C-239.472 1168.35 -229.236 1171.76 -219.731 1168.97L-26.371 1112.28C-20.1536 1110.46 -14.9504 1106.17 -11.9681 1100.42L116.106 853.388C118.544 848.685 119.34 843.302 118.367 838.096L73.1835 596.221C71.5976 587.732 65.5281 580.772 57.3331 578.047L-113.344 521.279C-121.539 518.553 -130.568 520.491 -136.922 526.339L-317.977 692.965C-321.875 696.552 -324.461 701.34 -325.326 706.566L-370.728 981.095C-371.785 987.487 -370.184 994.035 -366.297 999.218L-245.415 1160.43Z" stroke="#338600" stroke-width="2.5"/>
<path opacity="0.333333" d="M-273.557 1160.14C-268.041 1168.32 -258.04 1172.24 -248.434 1169.98L-53.9417 1124.3C-47.6225 1122.82 -42.1852 1118.81 -38.896 1113.22L100.457 876.129C103.152 871.544 104.23 866.186 103.518 860.915L70.928 619.681C69.774 611.139 64.0822 603.892 56.0568 600.747L-110.262 535.577C-118.287 532.432 -127.386 533.883 -134.036 539.367L-321.841 694.242C-325.944 697.626 -328.793 702.289 -329.93 707.485L-388.747 976.131C-390.136 982.472 -388.869 989.105 -385.24 994.487L-273.557 1160.14Z" stroke="#338600" stroke-width="2.5"/>
<path opacity="0.347826" d="M-300.976 1159.16C-295.897 1167.57 -286.159 1171.99 -276.482 1170.27L-81.4742 1135.56C-75.0716 1134.43 -69.4167 1130.71 -65.8284 1125.29L84.1179 898.638C87.065 894.183 88.4242 888.864 87.9765 883.542L67.7905 643.595C67.0693 635.023 61.7689 627.511 53.9345 623.957L-107.616 550.683C-115.451 547.13 -124.595 548.091 -131.519 553.195L-325.343 696.074C-329.642 699.244 -332.749 703.77 -334.159 708.922L-405.902 971.041C-407.619 977.313 -406.689 984.015 -403.328 989.583L-300.976 1159.16Z" stroke="#338600" stroke-width="2.5"/>
<path opacity="0.362319" d="M-327.638 1157.54C-323.005 1166.16 -313.554 1171.06 -303.836 1169.87L-108.924 1146.07C-102.457 1145.28 -96.5984 1141.87 -92.72 1136.63L67.1108 920.874C70.3037 916.564 71.9444 911.3 71.7642 905.939L63.7592 667.909C63.4705 659.329 58.574 651.572 50.9519 647.622L-105.444 566.563C-113.066 562.612 -122.227 563.083 -129.404 567.793L-328.513 698.478C-332.997 701.422 -336.353 705.797 -338.034 710.891L-422.185 965.872C-424.227 972.059 -423.638 978.813 -420.555 984.553L-327.638 1157.54Z" stroke="#338600" stroke-width="2.5"/>
<path opacity="0.376812" d="M-353.515 1155.32C-349.337 1164.13 -340.197 1169.49 -330.468 1168.84L-136.253 1155.83C-129.74 1155.4 -123.693 1152.3 -119.534 1147.27L49.4561 942.807C52.8881 938.654 54.8062 933.458 54.896 928.072L58.8193 692.57C58.962 684.003 54.4802 676.024 47.0903 671.688L-103.782 583.181C-111.172 578.846 -120.324 578.828 -127.732 583.132L-331.383 701.467C-336.041 704.173 -339.641 708.383 -341.591 713.405L-437.602 960.675C-439.965 966.761 -439.719 973.551 -436.922 979.449L-353.515 1155.32Z" stroke="#338600" stroke-width="2.5"/>
<path opacity="0.391304" d="M-378.447 1152.62C-374.73 1161.59 -365.925 1167.4 -356.215 1167.28L-163.287 1164.92C-156.747 1164.84 -150.53 1162.06 -146.101 1157.25L31.3091 964.452C34.973 960.471 37.168 955.357 37.5297 949.958L53.0968 717.572C53.6682 709.042 49.6101 700.863 42.4723 696.157L-102.53 600.555C-109.667 595.849 -118.784 595.342 -126.399 599.228L-333.852 705.101C-338.672 707.561 -342.507 711.593 -344.723 716.53L-452.023 955.554C-454.701 961.521 -454.8 968.328 -452.297 974.371L-378.447 1152.62Z" stroke="#338600" stroke-width="2.5"/>
<path opacity="0.405797" d="M-402.823 1149.32C-399.573 1158.43 -391.125 1164.66 -381.464 1165.07L-190.399 1173.19C-183.852 1173.47 -177.481 1171.03 -172.794 1166.45L12.2834 985.622C16.1711 981.823 18.638 976.805 19.2729 971.407L46.1709 742.705C47.1672 734.233 43.5431 725.877 36.6764 720.815L-102.131 618.487C-108.998 613.425 -118.052 612.434 -125.851 615.892L-336.364 709.234C-341.333 711.438 -345.395 715.279 -347.874 720.116L-465.865 950.397C-468.854 956.23 -469.299 963.038 -467.096 969.21L-402.823 1149.32Z" stroke="#338600" stroke-width="2.5"/>
<path opacity="0.449275" d="M-470.395 1137.16C-468.565 1146.53 -461.304 1153.89 -451.963 1155.85L-269.8 1194.08C-263.347 1195.43 -256.623 1194.04 -251.235 1190.24L-47.7555 1046.76C-43.2516 1043.58 -39.9926 1038.94 -38.5366 1033.62L20.2175 819.12C22.456 810.948 20.171 802.202 14.2212 796.169L-104.277 676.015C-110.227 669.983 -118.94 667.577 -127.143 669.702L-342.439 725.474C-347.774 726.856 -352.462 730.05 -355.701 734.51L-501.996 935.979C-505.87 941.313 -507.352 948.017 -506.088 954.487L-470.395 1137.16Z" stroke="#338600" stroke-width="2.5"/>
<path opacity="0.42029" d="M-426.213 1145.63C-423.434 1154.85 -415.363 1161.48 -405.779 1162.42L-217.141 1180.82C-210.606 1181.45 -204.098 1179.36 -199.164 1175.02L-7.18342 1006.44C-3.08069 1002.84 -0.344767 997.929 0.563974 992.545L38.4536 768.068C39.8703 759.675 36.6874 751.165 30.1096 745.762L-102.2 637.092C-108.778 631.689 -117.744 630.221 -125.703 633.241L-338.539 714.029C-343.644 715.966 -347.924 719.604 -350.661 724.329L-478.728 945.409C-482.019 951.091 -482.811 957.882 -480.916 964.169L-426.213 1145.63Z" stroke="#338600" stroke-width="2.5"/>
<path opacity="0.5" d="M-448.74 1141.57C-446.435 1150.87 -438.76 1157.88 -429.284 1159.33L-243.619 1187.77C-237.116 1188.77 -230.491 1187.02 -225.323 1182.95L-27.2061 1026.83C-22.8978 1023.43 -19.8974 1018.65 -18.7147 1013.29L29.8013 793.56C31.6323 785.267 28.896 776.627 22.624 770.9L-102.908 656.285C-109.18 650.558 -118.032 648.617 -126.125 651.193L-340.553 719.443C-345.78 721.107 -350.27 724.528 -353.26 729.127L-490.767 940.589C-494.354 946.105 -495.491 952.862 -493.909 959.248L-448.74 1141.57Z" stroke="#338600" stroke-width="2.5"/>
<path opacity="0.463768" d="M-491.163 1132.48C-489.807 1141.89 -482.978 1149.58 -473.8 1152.04L-295.646 1199.75C-289.265 1201.46 -282.46 1200.44 -276.867 1196.92L-68.7987 1066.2C-64.1098 1063.26 -60.5975 1058.76 -58.8694 1053.5L9.71197 844.699C12.3498 836.667 10.52 827.84 4.90731 821.519L-106.325 696.246C-111.937 689.925 -120.487 687.063 -128.774 688.732L-344.226 732.127C-349.655 733.221 -354.531 736.177 -358.011 740.484L-512.432 931.623C-516.584 936.762 -518.407 943.397 -517.465 949.936L-491.163 1132.48Z" stroke="#338600" stroke-width="2.5"/>
<path opacity="0.478261" d="M-511.043 1127.58C-510.162 1137 -503.778 1144.99 -494.791 1147.94L-321.135 1204.83C-314.845 1206.89 -307.979 1206.23 -302.194 1203.02L-90.3111 1085.14C-85.4484 1082.44 -81.69 1078.11 -79.6918 1072.91L-1.71269 870.242C1.31542 862.372 -0.0562625 853.486 -5.31751 846.896L-109.076 716.931C-114.338 710.341 -122.7 707.035 -131.045 708.245L-345.955 739.403C-351.462 740.202 -356.514 742.908 -360.229 747.051L-522.101 927.568C-526.52 932.497 -528.683 939.046 -528.066 945.636L-511.043 1127.58Z" stroke="#338600" stroke-width="2.5"/>
<path opacity="0.492754" d="M-530.032 1122.5C-529.622 1131.9 -523.697 1140.18 -514.927 1143.6L-346.235 1209.33C-340.055 1211.74 -333.148 1211.45 -327.188 1208.54L-112.259 1103.55C-107.234 1101.09 -103.235 1096.94 -100.969 1091.83L-14.0425 895.694C-10.6341 888.004 -11.5477 879.084 -16.4447 872.245L-112.547 738.024C-117.444 731.184 -125.593 727.446 -133.972 728.195L-347.655 747.295C-353.226 747.793 -358.442 750.241 -362.385 754.207L-531.024 923.85C-535.7 928.554 -538.196 935 -537.908 941.627L-530.032 1122.5Z" stroke="#338600" stroke-width="2.5"/>
<path opacity="0.507246" d="M-548.128 1117.3C-548.186 1126.66 -542.733 1135.19 -534.205 1139.07L-370.921 1213.27C-364.869 1216.02 -357.942 1216.11 -351.822 1213.51L-134.606 1121.4C-129.432 1119.2 -125.203 1115.24 -122.672 1110.22L-27.2616 921.003C-23.4839 913.511 -23.9397 904.581 -28.4606 897.513L-116.747 759.476C-121.268 752.408 -129.183 748.249 -137.569 748.537L-349.361 755.797C-354.978 755.989 -360.345 758.168 -364.508 761.945L-539.227 920.506C-544.149 924.973 -546.974 931.299 -547.015 937.946L-548.128 1117.3Z" stroke="#338600" stroke-width="2.5"/>
<path opacity="0.521739" d="M-565.335 1112.03C-565.855 1121.34 -560.884 1130.09 -552.622 1134.41L-395.164 1216.7C-389.26 1219.78 -382.331 1220.25 -376.069 1217.98L-157.32 1138.68C-152.008 1136.76 -147.557 1133 -144.766 1128.09L-41.352 946.126C-37.217 938.85 -37.2164 929.935 -41.3503 922.659L-121.689 781.252C-125.823 773.976 -133.481 769.412 -141.848 769.239L-351.1 764.913C-356.749 764.796 -362.254 766.697 -366.627 770.274L-546.734 917.584C-551.89 921.801 -555.039 927.991 -555.411 934.642L-565.335 1112.03Z" stroke="#338600" stroke-width="2.5"/>
<path opacity="0.536232" d="M-581.66 1106.75C-582.637 1115.97 -578.156 1124.92 -570.185 1129.66L-418.945 1219.64C-413.208 1223.05 -406.299 1223.89 -399.911 1221.95L-180.369 1155.38C-174.934 1153.74 -170.269 1150.2 -167.22 1145.4L-56.2956 971.012C-51.8165 963.97 -51.3618 955.094 -55.099 947.631L-127.381 803.303C-131.118 795.841 -138.499 790.888 -146.821 790.257L-352.909 774.632C-358.572 774.203 -364.203 775.817 -368.778 779.182L-553.58 915.117C-558.958 919.072 -562.422 925.108 -563.126 931.746L-581.66 1106.75Z" stroke="#338600" stroke-width="2.5"/>
</svg>
